# xmcd
#
# Track frame offsets: 
#        150
#        26820
#        43022
#        77528
#        93457
#        113610
#        135996
#        153617
#        185173
#        212460
#        225479
#        252080
#        271513
#        292363
#        316243
#
# Disc length: 4445 seconds
#
# Revision: 3
# Processed by: cddbd v1.5.2PL0 Copyright (c) Steve Scherf et al.
# Submitted via: ExactAudioCopy v0.99pb3
#
DISCID=c7115b0f
DTITLE=Various Artist - Buddha-Bar IX -  02
DYEAR=2007
DGENRE=New Age
TTITLE0=Bardo State - Sospiro
TTITLE1=Mystic Diversions - Flight BAO247
TTITLE2=Amanaska - Sleep
TTITLE3=Hess Is More - Yes Boss
TTITLE4=Koop - Koop Island Blues
TTITLE5=Eccodek - Mongolia On The Line
TTITLE6=Serafim Tsotsonis - Wood Street
TTITLE7=Existence - Heart Beat Of Life
TTITLE8=The Lushlife Project - Essence Of Our Origins
TTITLE9=Michalis Koumbios - Astradeni
TTITLE10=York featuring Asheni - Iceflowers
TTITLE11=David Lowe's Dreamcatcher - I Know Jayne
TTITLE12=Nikonn - Sunday
TTITLE13=Kenneth Bager featuring Julee Cruise - Fragment Two.... The F
TTITLE13=irst Picture
TTITLE14=Burhan Ocal - Bugu Jazz
EXTD=YEAR: 2007
EXTT0=
EXTT1=
EXTT2=
EXTT3=
EXTT4=
EXTT5=
EXTT6=
EXTT7=
EXTT8=
EXTT9=
EXTT10=
EXTT11=
EXTT12=
EXTT13=
EXTT14=
PLAYORDER=
